# Blender v2.68 (sub 0) OBJ File: ''
# www.blender.org
mtllib model.mtl
o Plane.002
v 1.000000 1.514279 1.000000
v -1.000000 1.514279 1.000000
v 1.000000 1.514279 -1.000000
v -1.000000 1.514279 -1.000000
vn 0.000000 1.000000 -0.000000
usemtl None
s off
f 2//1 1//1 4//1
f 1//1 3//1 4//1
o Plane.001
v 1.000000 0.702812 1.000000
v -1.000000 0.702812 1.000000
v 1.000000 0.702812 -1.000000
v -1.000000 0.702812 -1.000000
usemtl None
s off
f 6//1 5//1 8//1
f 5//1 7//1 8//1
o Plane
v 1.000000 0.000000 1.000000
v -1.000000 0.000000 1.000000
v 1.000000 0.000000 -1.000000
v -1.000000 0.000000 -1.000000
usemtl None
s off
f 10//1 9//1 12//1
f 9//1 11//1 12//1
